<?xml version="1.0" encoding="utf-8" ?><svg xmlns="http://www.w3.org/2000/svg" xmlns:xlink="http://www.w3.org/1999/xlink" width="1024" height="683" viewBox="0 0 1024 683"><path fill="#FD7811" transform="scale(1.6732 1.67402)" d="M343.618 111.386C359.264 108.512 380.332 110.74 388.745 126.603C389.674 128.355 390.372 130.493 390.691 132.457C392.569 148.055 378.304 161.303 364.691 165.925C363.756 166.243 362.066 166.928 361.143 167.056C360.213 167.307 355.534 168.103 355.136 168.312C363.241 179.09 362.957 190.4 354.481 200.816C351.314 202.87 347.554 206.946 343.867 208.422C341.39 209.805 339.14 210.606 336.332 211.12C333.625 211.711 330.892 212.175 328.142 212.512C327.052 212.655 322.897 213.122 322.167 213.354C320.259 213.45 315.008 212.878 313.146 212.462C312.308 213.362 310.884 217.432 310.075 218.951C306.851 225.007 300.166 236.593 295.004 240.905C288.394 241.324 282.3 240.782 275.684 241.399C278.994 238.385 284.185 233.296 286.584 229.523C288.033 227.243 296.806 215.541 296.879 214.119C298.506 212.53 300.159 210.97 301.839 209.437C290.379 201.887 284.605 195.607 285.418 181.032L285.627 180.305C286.351 178.277 288.286 172.911 289.676 171.415L290.001 170.556L290.006 170.281C290.128 170.137 290.252 169.995 290.378 169.855C298.736 160.547 310.668 156.325 322.923 155.714C321.735 154.219 321.361 153.718 320.495 152.036C317.867 147.515 316.692 142.296 317.128 137.085C317.786 129.001 321.709 123.876 327.566 118.85C326.531 117.514 325.571 116.398 324.896 114.835C328.017 116.686 326.774 119.112 331.421 116.431C332.882 115.664 334.358 114.925 335.848 114.216C338.478 113.017 340.82 112.096 343.618 111.386Z"/><path fill="#DD4009" transform="scale(1.6732 1.67402)" d="M290.001 170.556C308.322 176.339 318.383 190.483 313.588 209.351C313.353 210.277 313.124 211.511 313.146 212.462C312.308 213.362 310.884 217.432 310.075 218.951C306.851 225.007 300.166 236.593 295.004 240.905C288.394 241.324 282.3 240.782 275.684 241.399C278.994 238.385 284.185 233.296 286.584 229.523C288.033 227.243 296.806 215.541 296.879 214.119C298.506 212.53 300.159 210.97 301.839 209.437C290.379 201.887 284.605 195.607 285.418 181.032L285.627 180.305C286.351 178.277 288.286 172.911 289.676 171.415L290.001 170.556Z"/><path fill="#E4531F" transform="scale(1.6732 1.67402)" d="M285.627 180.305C286.351 178.277 288.286 172.911 289.676 171.415C293.276 175.94 296.487 178.019 299.659 183.726C295.794 181.072 290.208 179.893 285.627 180.305Z"/><defs><linearGradient id="gradient_0" gradientUnits="userSpaceOnUse" x1="365.71448" y1="127.47987" x2="384.94556" y2="119.35191"><stop offset="0" stop-color="#FEA723"/><stop offset="1" stop-color="#FFC536"/></linearGradient></defs><path fill="url(#gradient_0)" transform="scale(1.6732 1.67402)" d="M343.618 111.386C359.264 108.512 380.332 110.74 388.745 126.603C389.674 128.355 390.372 130.493 390.691 132.457C390.636 133.626 390.82 133.81 390.214 134.661C388.661 135.501 380.913 135.496 378.788 135.556C368.909 135.838 350.641 131.349 343.518 124.104L343.579 123.833C344.717 124.605 348.391 127.378 349.183 127.776C354.298 130.35 362.97 133.67 368.698 134.076C368.757 133.226 365.902 128.247 365.541 126.834C364.298 121.962 361.548 116.672 363.714 111.815L363.566 111.479C359.856 110.271 348.214 111.273 344.163 112.023L343.618 111.386Z"/><path fill="#DD4009" transform="scale(1.6732 1.67402)" d="M323.97 155.486L324.34 155.562C329.089 156.502 333.251 155.976 338.295 157.529C342.388 158.789 344.902 160.617 348.785 161.82C349.511 162.045 350.211 161.995 350.521 162.475C351.359 163.774 354.329 166.987 355.852 167.25C357.251 167.49 359.476 166.783 361.143 167.056C360.213 167.307 355.534 168.103 355.136 168.312C354.22 168.052 351.696 168.258 350.522 168.273C341.651 168.382 332.362 165.677 326.059 159.178C325.158 158.249 324.002 157.317 323.531 156.116L323.97 155.486Z"/><defs><linearGradient id="gradient_1" gradientUnits="userSpaceOnUse" x1="259.92212" y1="222.50729" x2="258.42993" y2="181.99199"><stop offset="0" stop-color="#F95E07"/><stop offset="1" stop-color="#FFAC25"/></linearGradient></defs><path fill="url(#gradient_1)" transform="scale(1.6732 1.67402)" d="M247.717 176.749C248.769 174.923 260.125 170.908 262.514 170.027C269.089 167.605 283.886 166.936 290.006 170.281L290.001 170.556L289.676 171.415C288.286 172.911 286.351 178.277 285.627 180.305L285.418 181.032C284.605 195.607 290.379 201.887 301.839 209.437C300.159 210.97 298.506 212.53 296.879 214.119C290.718 218.156 282.294 220.645 275.083 222.024C272.425 221.986 254.242 223.52 253.711 223.327C251.773 223.566 248.427 223.241 246.425 223.09C235.666 222.277 227.017 219.917 217.437 215.042C222.047 202.365 229.845 191.091 240.079 182.305C242.036 180.621 245.411 177.904 247.717 176.749Z"/><path fill="#FEBF39" transform="scale(1.6732 1.67402)" d="M247.717 176.749C248.769 174.923 260.125 170.908 262.514 170.027C269.089 167.605 283.886 166.936 290.006 170.281L290.001 170.556L289.676 171.415C288.286 172.911 286.351 178.277 285.627 180.305L285.418 181.032C284.496 182.206 284.566 184.199 284.461 185.76L283.984 186.124C280.589 186.711 271.829 185.387 268.524 184.165C270.608 183.457 272.295 182.852 274.336 182.002C270.163 182.56 256.486 189.422 255.466 189.418C253.106 188.373 242.336 183.872 241.545 182.448C242.926 180.524 247.231 178.733 247.717 176.749Z"/><path fill="#DD4009" transform="scale(1.6732 1.67402)" d="M343.867 208.422C347.554 206.946 351.314 202.87 354.481 200.816C355.6 202.702 357.22 204.67 358.6 206.395C368.6 218.893 379.133 231.648 392.128 241.107C388.571 241.208 385.013 241.249 381.455 241.231C373.289 241.239 372.036 240.597 365.711 234.401C360.767 229.557 346.745 214.174 343.867 208.422Z"/><path fill="#DD4009" transform="scale(1.6732 1.67402)" d="M322.167 213.354C322.897 213.122 327.052 212.655 328.142 212.512C330.892 212.175 333.625 211.711 336.332 211.12C343.511 221.777 349.166 232.766 359.379 241.174C355.068 241.221 344.765 241.406 340.91 241.006C335.169 235.479 330.005 227.572 325.929 220.722C324.533 218.374 323.393 215.439 322.167 213.354Z"/><path fill="#4E4D4E" transform="scale(1.6732 1.67402)" d="M274.981 272.022C277.022 272.096 279.064 272.183 281.105 272.285C280.827 274.663 280.911 278.714 280.883 281.207C280.815 287.297 280.913 293.366 280.827 299.465C279.839 299.653 276.781 299.527 275.627 299.508C273.614 297.948 270.638 294.623 268.809 292.694C264.827 288.477 260.884 284.224 256.979 279.936C257.214 285.992 256.983 293.358 257.025 299.583L251.203 299.378C251.222 290.266 251.194 281.155 251.121 272.043C253.696 272.034 254.963 272.091 257.524 272.423C262.766 277.841 270.049 285.767 274.993 291.405C274.837 285.113 275.047 278.386 274.981 272.022Z"/><path fill="#4E4D4E" transform="scale(1.6732 1.67402)" d="M214.492 272.092C216.691 272.023 218.427 272.176 220.603 272.347C225.059 281.304 230.182 290.59 234.847 299.514L228.109 299.479C226.752 297.042 225.755 295.268 224.68 292.7L219.564 292.722C216.276 292.691 212.908 292.747 209.613 292.764C208.579 294.544 207.221 297.52 206.277 299.439C204.133 299.496 201.99 299.539 199.846 299.568C200.332 298.427 201.892 295.05 202.486 294.172C204.613 291.027 212.732 273.008 214.492 272.092ZM211.895 288.535C214.248 288.16 215.56 288.224 217.907 288.273C219.297 288.251 220.686 288.215 222.075 288.257C221.772 286.884 217.854 278.605 217.072 277.914C215.313 281.381 213.473 284.986 211.895 288.535Z"/><path fill="#DD4009" transform="scale(1.6732 1.67402)" d="M253.711 223.327C254.242 223.52 272.425 221.986 275.083 222.024C271.151 226.403 259.715 240.19 253.734 240.879C248.91 241.435 240.399 240.984 234.991 241.315C237.802 239.058 252.963 225.668 253.711 223.327Z"/><path fill="#FEBF39" transform="scale(1.6732 1.67402)" d="M326.624 88.2502C328.583 86.9617 335.651 84.664 335.428 89.8325C335.401 90.4517 333.512 92.9521 333.369 93.7956C329.944 101.452 332.326 107.332 335.848 114.216C334.358 114.925 332.882 115.664 331.421 116.431C326.774 119.112 328.017 116.686 324.896 114.835C324.841 114.795 324.786 114.756 324.731 114.717C320.054 107.9 320.297 97.9669 324.355 90.9526C325.03 89.7845 325.952 88.9309 326.624 88.2502Z"/><path fill="#FC8D1A" transform="scale(1.6732 1.67402)" d="M324.896 114.835C324.841 114.795 324.786 114.756 324.731 114.717C320.054 107.9 320.297 97.9669 324.355 90.9526C325.03 89.7845 325.952 88.9309 326.624 88.2502C326.957 88.6862 327.714 89.4323 327.495 89.9319C323.469 99.1399 323.812 108.235 331.421 116.431C326.774 119.112 328.017 116.686 324.896 114.835Z"/><path fill="#4E4D4E" transform="scale(1.6732 1.67402)" d="M403.227 272.078L410.44 272.31C408.827 273.87 405.174 278.593 403.479 280.601C401.716 282.521 399.23 285.915 397.56 288.06C396.915 290.953 397.063 296.38 397.065 299.563C395.094 299.468 392.86 299.52 390.869 299.519C391.104 296.213 390.995 292.041 390.894 288.73C388.967 285.96 378.375 273.853 377.756 272.135C379.776 272.268 382.744 272.258 384.725 272.068C388.026 275.783 391.069 280.146 394.322 284.008C397.003 280.11 400.306 275.794 403.227 272.078Z"/><path fill="#4E4D4E" transform="scale(1.6732 1.67402)" d="M311.611 272.146L326.453 272.175C326.292 273.618 326.247 275.33 326.172 276.802L314.966 276.789C314.988 282.282 315.379 294.182 314.87 299.14C314.145 299.734 314.364 299.541 313.113 299.467C312.001 299.289 310.562 299.305 309.413 299.278C308.82 298.366 308.971 279.463 308.89 276.761C305.403 276.85 301.531 276.749 298.015 276.733C297.916 275.169 297.999 273.8 298.068 272.234C302.582 272.178 307.097 272.149 311.611 272.146Z"/><path fill="#4E4D4E" transform="scale(1.6732 1.67402)" d="M343.239 272.043C345.659 272.123 346.995 272.14 349.426 271.924C349.096 279.109 349.324 287.76 349.356 295.045C355.314 295.091 361.272 295.047 367.229 294.913C367.237 296.217 367.37 298.413 366.845 299.514C363.713 298.813 347.468 299.503 343.279 299.537L343.239 272.043Z"/></svg>